<svg width="81" height="80" viewBox="0 0 81 80" fill="none" xmlns="http://www.w3.org/2000/svg">
<path d="M71.6863 0H27.7647C23.0075 0 19.1373 3.87027 19.1373 8.62745V28.2353H8.62745C3.87027 28.2353 0 32.1056 0 36.8627V61.9608C0 66.718 3.87027 70.5882 8.62745 70.5882H23.0544L28.6304 78.9522C29.0668 79.6068 29.8016 80 30.5882 80C31.3749 80 32.1096 79.6068 32.546 78.9522L38.122 70.5882H52.549C57.3062 70.5882 61.1765 66.718 61.1765 61.9608V42.3529H71.6863C76.4435 42.3529 80.3137 38.4827 80.3137 33.7255V8.62745C80.3137 3.87027 76.4435 0 71.6863 0ZM56.4706 61.9608C56.4706 64.1231 54.7114 65.8824 52.549 65.8824H36.8627C36.0761 65.8824 35.3413 66.2756 34.9049 66.9302L30.5882 73.4052L26.2715 66.9302C25.8351 66.2756 25.1004 65.8824 24.3137 65.8824H8.62745C6.4651 65.8824 4.70588 64.1231 4.70588 61.9608V36.8627C4.70588 34.7004 6.4651 32.9412 8.62745 32.9412H19.1373V33.7255C19.1373 35.1373 19.4803 36.4695 20.0839 37.6471H11.7647C10.4653 37.6471 9.41177 38.7006 9.41177 40C9.41177 41.2995 10.4653 42.3529 11.7647 42.3529H42.1918L45.3291 47.0588H11.7647C10.4653 47.0588 9.41177 48.1123 9.41177 49.4118C9.41177 50.7112 10.4653 51.7647 11.7647 51.7647H49.7255C50.5123 51.7647 51.2469 51.3715 51.6831 50.7169L56.4706 43.5358V61.9608ZM75.6078 33.7255C75.6078 35.8878 73.8486 37.6471 71.6863 37.6471H56C55.2132 37.6471 54.4786 38.0403 54.0424 38.6949L49.7255 45.1699L45.4086 38.6949C44.9724 38.0403 44.2376 37.6471 43.451 37.6471H27.7647C25.6024 37.6471 23.8431 35.8878 23.8431 33.7255V8.62745C23.8431 6.4651 25.6024 4.70588 27.7647 4.70588H71.6863C73.8486 4.70588 75.6078 6.4651 75.6078 8.62745V33.7255Z" fill="#2352DE"/>
</svg>
